ISO-10303-21;
HEADER;
FILE_DESCRIPTION(('ViewDefinition[DesignTransferView]'),'2;1');
FILE_NAME('/dev/null','2026-05-10T12:19:38+09:00',(''),(''),'IfcOpenShell 0.8.5','IfcOpenShell 0.8.5','Nobody');
FILE_SCHEMA(('IFC4'));
ENDSEC;
DATA;
#1=IFCPERSON('yuki','Hamada','Yuki',$,$,$,$,$);
#2=IFCORGANIZATION('ENABLER','Enabler Inc.',$,$,$);
#3=IFCPERSONANDORGANIZATION(#1,#2,$);
#4=IFCAPPLICATION(#2,'0.1','Farnsworth IFC Generator','ENABLER-FARNSWORTH');
#5=IFCOWNERHISTORY(#3,#4,.READWRITE.,.ADDED.,1778383178,#3,#4,1778383178);
#6=IFCPROJECT('0uA8_AxnTBIOPUz0GUNUA6',#5,'Farnsworth House',$,$,'Farnsworth House \X2\2014\X0\ Mies van der Rohe, 1951','As-built (reference model)',(#15,#20),#10);
#7=IFCSIUNIT(*,.LENGTHUNIT.,$,.METRE.);
#8=IFCSIUNIT(*,.AREAUNIT.,$,.SQUARE_METRE.);
#9=IFCSIUNIT(*,.VOLUMEUNIT.,$,.CUBIC_METRE.);
#10=IFCUNITASSIGNMENT((#8,#9,#7));
#11=IFCCARTESIANPOINT((0.,0.,0.));
#12=IFCDIRECTION((0.,0.,1.));
#13=IFCDIRECTION((1.,0.,0.));
#14=IFCAXIS2PLACEMENT3D(#11,#12,#13);
#15=IFCGEOMETRICREPRESENTATIONCONTEXT($,'Model',3,1.0000000000000001E-05,#14,$);
#16=IFCGEOMETRICREPRESENTATIONSUBCONTEXT('Body','Model',*,*,*,*,#15,$,.MODEL_VIEW.,$);
#17=IFCCARTESIANPOINT((0.,0.));
#18=IFCDIRECTION((1.,0.));
#19=IFCAXIS2PLACEMENT2D(#17,#18);
#20=IFCGEOMETRICREPRESENTATIONCONTEXT($,'Plan',2,1.0000000000000001E-05,#19,$);
#21=IFCGEOMETRICREPRESENTATIONSUBCONTEXT('Annotation','Plan',*,*,*,*,#20,$,.PLAN_VIEW.,$);
#22=IFCOWNERHISTORY(#3,#4,.READWRITE.,.ADDED.,1778383178,#3,#4,1778383178);
#23=IFCSITE('1v47NhAyzELB9z3ewLYaiG',#22,'Plano, Illinois',$,$,$,$,'Fox River, Plano, Illinois, USA',.ELEMENT.,(41,39,49),(-88,-32,-10),173.,$,$);
#24=IFCOWNERHISTORY(#3,#4,.READWRITE.,.ADDED.,1778383178,#3,#4,1778383178);
#25=IFCBUILDING('1WI2vYNbHC9hH2eH1aOf2A',#24,'Farnsworth House',$,$,$,$,$,.ELEMENT.,$,$,$);
#26=IFCOWNERHISTORY(#3,#4,.READWRITE.,.ADDED.,1778383178,#3,#4,1778383178);
#27=IFCBUILDINGSTOREY('06HFPSY119du0CqnXk6_x3',#26,'Grade',$,$,$,$,$,.ELEMENT.,0.);
#28=IFCOWNERHISTORY(#3,#4,.READWRITE.,.ADDED.,1778383178,#3,#4,1778383178);
#29=IFCBUILDINGSTOREY('1PcsIczZP6n8dfcRuwoDoH',#28,'Terrace Level',$,$,$,$,$,.ELEMENT.,0.80000000000000004);
#30=IFCOWNERHISTORY(#3,#4,.READWRITE.,.ADDED.,1778383178,#3,#4,1778383178);
#31=IFCBUILDINGSTOREY('23qqTp5bzB$wvg6bpn_SPp',#30,'Main Floor',$,$,$,$,$,.ELEMENT.,1.6000000000000001);
#32=IFCOWNERHISTORY(#3,#4,.READWRITE.,.ADDED.,1778383178,#3,#4,1778383178);
#33=IFCBUILDINGSTOREY('1dHw9sfNz2w8TeFsixrjtd',#32,'Roof',$,$,$,$,$,.ELEMENT.,4.75);
#34=IFCOWNERHISTORY(#3,#4,.READWRITE.,.ADDED.,1778383178,#3,#4,1778383178);
#35=IFCRELAGGREGATES('29jyiP_8DD1Oq0EvNmX9As',#34,$,$,#6,(#23));
#36=IFCOWNERHISTORY(#3,#4,.READWRITE.,.ADDED.,1778383178,#3,#4,1778383178);
#37=IFCRELAGGREGATES('0ZWzUk4Bz6lwmxbkvSbipD',#36,$,$,#23,(#25));
#38=IFCOWNERHISTORY(#3,#4,.READWRITE.,.ADDED.,1778383178,#3,#4,1778383178);
#39=IFCRELAGGREGATES('3DT2beCbXD4Qn0lofSe1hg',#38,$,$,#25,(#29,#27,#33,#31));
#40=IFCMATERIAL('Steel \X2\2014\X0\ White Enamel',$,'steel');
#41=IFCMATERIAL('Travertine',$,'stone');
#42=IFCMATERIAL('Float Glass \X2\2014\X0\ 25mm',$,'glass');
#43=IFCMATERIAL('Concrete (terrace structure)',$,'concrete');
#44=IFCMATERIAL('Meadow / Topsoil',$,'soil');
#45=IFCCOLOURRGB('Steel White',0.94999999999999996,0.94999999999999996,0.93000000000000005);
#46=IFCSURFACESTYLESHADING(#45,0.);
#47=IFCSURFACESTYLE('Steel White',.BOTH.,(#46));
#48=IFCCOLOURRGB('Travertine',0.85999999999999999,0.81000000000000005,0.71999999999999997);
#49=IFCSURFACESTYLESHADING(#48,0.);
#50=IFCSURFACESTYLE('Travertine',.BOTH.,(#49));
#51=IFCCOLOURRGB('Glass',0.65000000000000002,0.78000000000000003,0.84999999999999998);
#52=IFCSURFACESTYLESHADING(#51,0.69999999999999996);
#53=IFCSURFACESTYLE('Glass',.BOTH.,(#52));
#54=IFCCOLOURRGB('Concrete',0.78000000000000003,0.76000000000000001,0.71999999999999997);
#55=IFCSURFACESTYLESHADING(#54,0.);
#56=IFCSURFACESTYLE('Concrete',.BOTH.,(#55));
#57=IFCCOLOURRGB('Meadow',0.45000000000000001,0.55000000000000004,0.29999999999999999);
#58=IFCSURFACESTYLESHADING(#57,0.);
#59=IFCSURFACESTYLE('Meadow',.BOTH.,(#58));
#60=IFCPRESENTATIONSTYLEASSIGNMENT((#47));
#61=IFCSTYLEDITEM($,(#60),$);
#62=IFCSTYLEDREPRESENTATION(#16,$,$,(#61));
#63=IFCMATERIALDEFINITIONREPRESENTATION('Steel \X2\2014\X0\ White Enamel',$,(#62),#40);
#64=IFCPRESENTATIONSTYLEASSIGNMENT((#50));
#65=IFCSTYLEDITEM($,(#64),$);
#66=IFCSTYLEDREPRESENTATION(#16,$,$,(#65));
#67=IFCMATERIALDEFINITIONREPRESENTATION('Travertine',$,(#66),#41);
#68=IFCPRESENTATIONSTYLEASSIGNMENT((#53));
#69=IFCSTYLEDITEM($,(#68),$);
#70=IFCSTYLEDREPRESENTATION(#16,$,$,(#69));
#71=IFCMATERIALDEFINITIONREPRESENTATION('Float Glass \X2\2014\X0\ 25mm',$,(#70),#42);
#72=IFCPRESENTATIONSTYLEASSIGNMENT((#56));
#73=IFCSTYLEDITEM($,(#72),$);
#74=IFCSTYLEDREPRESENTATION(#16,$,$,(#73));
#75=IFCMATERIALDEFINITIONREPRESENTATION('Concrete (terrace structure)',$,(#74),#43);
#76=IFCPRESENTATIONSTYLEASSIGNMENT((#59));
#77=IFCSTYLEDITEM($,(#76),$);
#78=IFCSTYLEDREPRESENTATION(#16,$,$,(#77));
#79=IFCMATERIALDEFINITIONREPRESENTATION('Meadow / Topsoil',$,(#78),#44);
#80=IFCOWNERHISTORY(#3,#4,.READWRITE.,.MODIFIED.,1778383178,#3,#4,1778383178);
#81=IFCSLAB('1Pqi96$EHATvYgiCwGIEF2',#80,'Main Floor Slab',$,$,#105,#98,$,.FLOOR.);
#87=IFCCARTESIANPOINT((0.,0.));
#88=IFCDIRECTION((1.,0.));
#89=IFCAXIS2PLACEMENT2D(#87,#88);
#90=IFCRECTANGLEPROFILEDEF(.AREA.,$,#89,23.469999999999999,8.7400000000000002);
#91=IFCCARTESIANPOINT((0.,0.,0.));
#92=IFCDIRECTION((0.,0.,1.));
#93=IFCDIRECTION((1.,0.,0.));
#94=IFCAXIS2PLACEMENT3D(#91,#92,#93);
#95=IFCDIRECTION((0.,0.,1.));
#96=IFCEXTRUDEDAREASOLID(#90,#94,#95,0.29999999999999999);
#97=IFCSHAPEREPRESENTATION(#16,'Body','SweptSolid',(#96));
#98=IFCPRODUCTDEFINITIONSHAPE($,$,(#97));
#99=IFCOWNERHISTORY(#3,#4,.READWRITE.,.MODIFIED.,1778383178,#3,#4,1778383178);
#100=IFCRELCONTAINEDINSPATIALSTRUCTURE('3tKBbblfP31BAaQvNS4W7M',#99,$,$,(#541,#443,#251,#379,#509,#347,#315,#477,#81,#185,#283,#411,#219),#31);
#101=IFCCARTESIANPOINT((0.,0.,1.3));
#102=IFCDIRECTION((0.,0.,1.));
#103=IFCDIRECTION((1.,0.,0.));
#104=IFCAXIS2PLACEMENT3D(#101,#102,#103);
#105=IFCLOCALPLACEMENT($,#104);
#106=IFCOWNERHISTORY(#3,#4,.READWRITE.,.MODIFIED.,1778383178,#3,#4,1778383178);
#107=IFCRELASSOCIATESMATERIAL('0yQ6KyL0r0YAYwxtRGe0FP',#106,$,$,(#117,#609,#151,#81,#573),#41);
#108=IFCOWNERHISTORY(#3,#4,.READWRITE.,.ADDED.,1778383178,#3,#4,1778383178);
#109=IFCPROPERTYSET('0rlT$Ckb51WAxTQI7rBtTf',#108,'Pset_SlabCommon',$,(#112,#113,#114,#115));
#110=IFCOWNERHISTORY(#3,#4,.READWRITE.,.ADDED.,1778383178,#3,#4,1778383178);
#111=IFCRELDEFINESBYPROPERTIES('1tDrVzDALFBBVeQP4z_jG4',#110,$,$,(#81),#109);
#112=IFCPROPERTYSINGLEVALUE('IsExternal',$,IFCBOOLEAN(.T.),$);
#113=IFCPROPERTYSINGLEVALUE('LoadBearing',$,IFCBOOLEAN(.T.),$);
#114=IFCPROPERTYSINGLEVALUE('Reference',$,IFCIDENTIFIER('Main Floor Slab'),$);
#115=IFCPROPERTYSINGLEVALUE('ThermalTransmittance',$,IFCTHERMALTRANSMITTANCEMEASURE(0.29999999999999999),$);
#116=IFCOWNERHISTORY(#3,#4,.READWRITE.,.MODIFIED.,1778383178,#3,#4,1778383178);
#117=IFCSLAB('0bvcxXqC93xvkb1Nmg1VZb',#116,'Roof Slab',$,$,#141,#134,$,.ROOF.);
#123=IFCCARTESIANPOINT((0.,0.));
#124=IFCDIRECTION((1.,0.));
#125=IFCAXIS2PLACEMENT2D(#123,#124);
#126=IFCRECTANGLEPROFILEDEF(.AREA.,$,#125,23.469999999999999,8.7400000000000002);
#127=IFCCARTESIANPOINT((0.,0.,0.));
#128=IFCDIRECTION((0.,0.,1.));
#129=IFCDIRECTION((1.,0.,0.));
#130=IFCAXIS2PLACEMENT3D(#127,#128,#129);
#131=IFCDIRECTION((0.,0.,1.));
#132=IFCEXTRUDEDAREASOLID(#126,#130,#131,0.25);
#133=IFCSHAPEREPRESENTATION(#16,'Body','SweptSolid',(#132));
#134=IFCPRODUCTDEFINITIONSHAPE($,$,(#133));
#135=IFCOWNERHISTORY(#3,#4,.READWRITE.,.ADDED.,1778383178,#3,#4,1778383178);
#136=IFCRELCONTAINEDINSPATIALSTRUCTURE('2w5jR2zonCBQHQPWdcnCf8',#135,$,$,(#117),#33);
#137=IFCCARTESIANPOINT((0.,0.,4.5));
#138=IFCDIRECTION((0.,0.,1.));
#139=IFCDIRECTION((1.,0.,0.));
#140=IFCAXIS2PLACEMENT3D(#137,#138,#139);
#141=IFCLOCALPLACEMENT($,#140);
#142=IFCOWNERHISTORY(#3,#4,.READWRITE.,.ADDED.,1778383178,#3,#4,1778383178);
#143=IFCPROPERTYSET('3lCsKKjzbDNvR$uROoPoDv',#142,'Pset_SlabCommon',$,(#146,#147,#148,#149));
#144=IFCOWNERHISTORY(#3,#4,.READWRITE.,.ADDED.,1778383178,#3,#4,1778383178);
#145=IFCRELDEFINESBYPROPERTIES('3kb15Arn91j8yNqoCo7zsp',#144,$,$,(#117),#143);
#146=IFCPROPERTYSINGLEVALUE('IsExternal',$,IFCBOOLEAN(.T.),$);
#147=IFCPROPERTYSINGLEVALUE('LoadBearing',$,IFCBOOLEAN(.T.),$);
#148=IFCPROPERTYSINGLEVALUE('Reference',$,IFCIDENTIFIER('Roof Slab'),$);
#149=IFCPROPERTYSINGLEVALUE('ThermalTransmittance',$,IFCTHERMALTRANSMITTANCEMEASURE(0.29999999999999999),$);
#150=IFCOWNERHISTORY(#3,#4,.READWRITE.,.MODIFIED.,1778383178,#3,#4,1778383178);
#151=IFCSLAB('2lrlV1rgr9UxFF80EGNgxZ',#150,'Terrace Slab',$,$,#175,#168,$,.FLOOR.);
#157=IFCCARTESIANPOINT((0.,0.));
#158=IFCDIRECTION((1.,0.));
#159=IFCAXIS2PLACEMENT2D(#157,#158);
#160=IFCRECTANGLEPROFILEDEF(.AREA.,$,#159,16.760000000000002,6.71);
#161=IFCCARTESIANPOINT((0.,0.,0.));
#162=IFCDIRECTION((0.,0.,1.));
#163=IFCDIRECTION((1.,0.,0.));
#164=IFCAXIS2PLACEMENT3D(#161,#162,#163);
#165=IFCDIRECTION((0.,0.,1.));
#166=IFCEXTRUDEDAREASOLID(#160,#164,#165,0.25);
#167=IFCSHAPEREPRESENTATION(#16,'Body','SweptSolid',(#166));
#168=IFCPRODUCTDEFINITIONSHAPE($,$,(#167));
#169=IFCOWNERHISTORY(#3,#4,.READWRITE.,.MODIFIED.,1778383178,#3,#4,1778383178);
#170=IFCRELCONTAINEDINSPATIALSTRUCTURE('0BvRNjmib2Avxa8h5$7oEd',#169,$,$,(#609,#151),#29);
#171=IFCCARTESIANPOINT((-17.060000000000002,1.0150000000000001,0.55000000000000004));
#172=IFCDIRECTION((0.,0.,1.));
#173=IFCDIRECTION((1.,0.,0.));
#174=IFCAXIS2PLACEMENT3D(#171,#172,#173);
#175=IFCLOCALPLACEMENT($,#174);
#176=IFCOWNERHISTORY(#3,#4,.READWRITE.,.ADDED.,1778383178,#3,#4,1778383178);
#177=IFCPROPERTYSET('1vdTBcasL3pAp3td06q1RM',#176,'Pset_SlabCommon',$,(#180,#181,#182,#183));
#178=IFCOWNERHISTORY(#3,#4,.READWRITE.,.ADDED.,1778383178,#3,#4,1778383178);
#179=IFCRELDEFINESBYPROPERTIES('0SgKaTKDXDuv7XpM5CFVGz',#178,$,$,(#151),#177);
#180=IFCPROPERTYSINGLEVALUE('IsExternal',$,IFCBOOLEAN(.T.),$);
#181=IFCPROPERTYSINGLEVALUE('LoadBearing',$,IFCBOOLEAN(.T.),$);
#182=IFCPROPERTYSINGLEVALUE('Reference',$,IFCIDENTIFIER('Terrace Slab'),$);
#183=IFCPROPERTYSINGLEVALUE('ThermalTransmittance',$,IFCTHERMALTRANSMITTANCEMEASURE(0.29999999999999999),$);
#184=IFCOWNERHISTORY(#3,#4,.READWRITE.,.MODIFIED.,1778383178,#3,#4,1778383178);
#185=IFCCOLUMN('0bRxJhDpD3z88n$jdGFs9h',#184,'Steel Column N1',$,$,#207,#202,$,.COLUMN.);
#191=IFCCARTESIANPOINT((0.,0.));
#192=IFCDIRECTION((1.,0.));
#193=IFCAXIS2PLACEMENT2D(#191,#192);
#194=IFCISHAPEPROFILEDEF(.AREA.,'W8x48',#193,0.20999999999999999,0.20999999999999999,0.012,0.017999999999999999,0.01,$,$);
#195=IFCCARTESIANPOINT((0.,0.,0.));
#196=IFCDIRECTION((0.,0.,1.));
#197=IFCDIRECTION((1.,0.,0.));
#198=IFCAXIS2PLACEMENT3D(#195,#196,#197);
#199=IFCDIRECTION((0.,0.,1.));
#200=IFCEXTRUDEDAREASOLID(#194,#198,#199,4.75);
#201=IFCSHAPEREPRESENTATION(#16,'Body','SweptSolid',(#200));
#202=IFCPRODUCTDEFINITIONSHAPE($,$,(#201));
#203=IFCCARTESIANPOINT((1.6799999999999999,8.8250000000000011,0.));
#204=IFCDIRECTION((0.,0.,1.));
#205=IFCDIRECTION((1.,0.,0.));
#206=IFCAXIS2PLACEMENT3D(#203,#204,#205);
#207=IFCLOCALPLACEMENT($,#206);
#208=IFCOWNERHISTORY(#3,#4,.READWRITE.,.MODIFIED.,1778383178,#3,#4,1778383178);
#209=IFCRELASSOCIATESMATERIAL('32YObtxRn7h89GdnIumsjg',#208,$,$,(#379,#219,#347,#315,#185,#283,#411,#251),#40);
#210=IFCOWNERHISTORY(#3,#4,.READWRITE.,.ADDED.,1778383178,#3,#4,1778383178);
#211=IFCPROPERTYSET('0yYy_QSoLBLhkXKwchLdnL',#210,'Pset_ColumnCommon',$,(#214,#215,#216,#217));
#212=IFCOWNERHISTORY(#3,#4,.READWRITE.,.ADDED.,1778383178,#3,#4,1778383178);
#213=IFCRELDEFINESBYPROPERTIES('3VwD58_ij09uWAROzD4sjC',#212,$,$,(#185),#211);
#214=IFCPROPERTYSINGLEVALUE('Reference',$,IFCIDENTIFIER('W8x48'),$);
#215=IFCPROPERTYSINGLEVALUE('LoadBearing',$,IFCBOOLEAN(.T.),$);
#216=IFCPROPERTYSINGLEVALUE('IsExternal',$,IFCBOOLEAN(.T.),$);
#217=IFCPROPERTYSINGLEVALUE('Slope',$,IFCPLANEANGLEMEASURE(0.),$);
#218=IFCOWNERHISTORY(#3,#4,.READWRITE.,.MODIFIED.,1778383178,#3,#4,1778383178);
#219=IFCCOLUMN('3gdx6MPbT1uuCp353Iz8So',#218,'Steel Column S1',$,$,#241,#236,$,.COLUMN.);
#225=IFCCARTESIANPOINT((0.,0.));
#226=IFCDIRECTION((1.,0.));
#227=IFCAXIS2PLACEMENT2D(#225,#226);
#228=IFCISHAPEPROFILEDEF(.AREA.,'W8x48',#227,0.20999999999999999,0.20999999999999999,0.012,0.017999999999999999,0.01,$,$);
#229=IFCCARTESIANPOINT((0.,0.,0.));
#230=IFCDIRECTION((0.,0.,1.));
#231=IFCDIRECTION((1.,0.,0.));
#232=IFCAXIS2PLACEMENT3D(#229,#230,#231);
#233=IFCDIRECTION((0.,0.,1.));
#234=IFCEXTRUDEDAREASOLID(#228,#232,#233,4.75);
#235=IFCSHAPEREPRESENTATION(#16,'Body','SweptSolid',(#234));
#236=IFCPRODUCTDEFINITIONSHAPE($,$,(#235));
#237=IFCCARTESIANPOINT((1.6799999999999999,-0.084999999999999992,0.));
#238=IFCDIRECTION((0.,0.,1.));
#239=IFCDIRECTION((1.,0.,0.));
#240=IFCAXIS2PLACEMENT3D(#237,#238,#239);
#241=IFCLOCALPLACEMENT($,#240);
#242=IFCOWNERHISTORY(#3,#4,.READWRITE.,.ADDED.,1778383178,#3,#4,1778383178);
#243=IFCPROPERTYSET('1Pq8OQVWr0jwz1UBLFhw6W',#242,'Pset_ColumnCommon',$,(#246,#247,#248,#249));
#244=IFCOWNERHISTORY(#3,#4,.READWRITE.,.ADDED.,1778383178,#3,#4,1778383178);
#245=IFCRELDEFINESBYPROPERTIES('1N6554jh5FJfY7sGH3hV28',#244,$,$,(#219),#243);
#246=IFCPROPERTYSINGLEVALUE('Reference',$,IFCIDENTIFIER('W8x48'),$);
#247=IFCPROPERTYSINGLEVALUE('LoadBearing',$,IFCBOOLEAN(.T.),$);
#248=IFCPROPERTYSINGLEVALUE('IsExternal',$,IFCBOOLEAN(.T.),$);
#249=IFCPROPERTYSINGLEVALUE('Slope',$,IFCPLANEANGLEMEASURE(0.),$);
#250=IFCOWNERHISTORY(#3,#4,.READWRITE.,.MODIFIED.,1778383178,#3,#4,1778383178);
#251=IFCCOLUMN('0Du9SO3VHCzQTZj8Wdr5mT',#250,'Steel Column N2',$,$,#273,#268,$,.COLUMN.);
#257=IFCCARTESIANPOINT((0.,0.));
#258=IFCDIRECTION((1.,0.));
#259=IFCAXIS2PLACEMENT2D(#257,#258);
#260=IFCISHAPEPROFILEDEF(.AREA.,'W8x48',#259,0.20999999999999999,0.20999999999999999,0.012,0.017999999999999999,0.01,$,$);
#261=IFCCARTESIANPOINT((0.,0.,0.));
#262=IFCDIRECTION((0.,0.,1.));
#263=IFCDIRECTION((1.,0.,0.));
#264=IFCAXIS2PLACEMENT3D(#261,#262,#263);
#265=IFCDIRECTION((0.,0.,1.));
#266=IFCEXTRUDEDAREASOLID(#260,#264,#265,4.75);
#267=IFCSHAPEREPRESENTATION(#16,'Body','SweptSolid',(#266));
#268=IFCPRODUCTDEFINITIONSHAPE($,$,(#267));
#269=IFCCARTESIANPOINT((8.3900000000000006,8.8250000000000011,0.));
#270=IFCDIRECTION((0.,0.,1.));
#271=IFCDIRECTION((1.,0.,0.));
#272=IFCAXIS2PLACEMENT3D(#269,#270,#271);
#273=IFCLOCALPLACEMENT($,#272);
#274=IFCOWNERHISTORY(#3,#4,.READWRITE.,.ADDED.,1778383178,#3,#4,1778383178);
#275=IFCPROPERTYSET('3oNxNUYCDDLgDM57hKh13b',#274,'Pset_ColumnCommon',$,(#278,#279,#280,#281));
#276=IFCOWNERHISTORY(#3,#4,.READWRITE.,.ADDED.,1778383178,#3,#4,1778383178);
#277=IFCRELDEFINESBYPROPERTIES('1TyVaZlHzBmAAaqzKy3xRm',#276,$,$,(#251),#275);
#278=IFCPROPERTYSINGLEVALUE('Reference',$,IFCIDENTIFIER('W8x48'),$);
#279=IFCPROPERTYSINGLEVALUE('LoadBearing',$,IFCBOOLEAN(.T.),$);
#280=IFCPROPERTYSINGLEVALUE('IsExternal',$,IFCBOOLEAN(.T.),$);
#281=IFCPROPERTYSINGLEVALUE('Slope',$,IFCPLANEANGLEMEASURE(0.),$);
#282=IFCOWNERHISTORY(#3,#4,.READWRITE.,.MODIFIED.,1778383178,#3,#4,1778383178);
#283=IFCCOLUMN('3Cc$JRRBPFxx1ZgqYkMIlN',#282,'Steel Column S2',$,$,#305,#300,$,.COLUMN.);
#289=IFCCARTESIANPOINT((0.,0.));
#290=IFCDIRECTION((1.,0.));
#291=IFCAXIS2PLACEMENT2D(#289,#290);
#292=IFCISHAPEPROFILEDEF(.AREA.,'W8x48',#291,0.20999999999999999,0.20999999999999999,0.012,0.017999999999999999,0.01,$,$);
#293=IFCCARTESIANPOINT((0.,0.,0.));
#294=IFCDIRECTION((0.,0.,1.));
#295=IFCDIRECTION((1.,0.,0.));
#296=IFCAXIS2PLACEMENT3D(#293,#294,#295);
#297=IFCDIRECTION((0.,0.,1.));
#298=IFCEXTRUDEDAREASOLID(#292,#296,#297,4.75);
#299=IFCSHAPEREPRESENTATION(#16,'Body','SweptSolid',(#298));
#300=IFCPRODUCTDEFINITIONSHAPE($,$,(#299));
#301=IFCCARTESIANPOINT((8.3900000000000006,-0.084999999999999992,0.));
#302=IFCDIRECTION((0.,0.,1.));
#303=IFCDIRECTION((1.,0.,0.));
#304=IFCAXIS2PLACEMENT3D(#301,#302,#303);
#305=IFCLOCALPLACEMENT($,#304);
#306=IFCOWNERHISTORY(#3,#4,.READWRITE.,.ADDED.,1778383178,#3,#4,1778383178);
#307=IFCPROPERTYSET('3S7GfCSS1Ad9AugSl1dNXl',#306,'Pset_ColumnCommon',$,(#310,#311,#312,#313));
#308=IFCOWNERHISTORY(#3,#4,.READWRITE.,.ADDED.,1778383178,#3,#4,1778383178);
#309=IFCRELDEFINESBYPROPERTIES('00NDK4Fj5C7fd61fewuP0M',#308,$,$,(#283),#307);
#310=IFCPROPERTYSINGLEVALUE('Reference',$,IFCIDENTIFIER('W8x48'),$);
#311=IFCPROPERTYSINGLEVALUE('LoadBearing',$,IFCBOOLEAN(.T.),$);
#312=IFCPROPERTYSINGLEVALUE('IsExternal',$,IFCBOOLEAN(.T.),$);
#313=IFCPROPERTYSINGLEVALUE('Slope',$,IFCPLANEANGLEMEASURE(0.),$);
#314=IFCOWNERHISTORY(#3,#4,.READWRITE.,.MODIFIED.,1778383178,#3,#4,1778383178);
#315=IFCCOLUMN('3LNZ7YaVD1AOuXSMPLKPsL',#314,'Steel Column N3',$,$,#337,#332,$,.COLUMN.);
#321=IFCCARTESIANPOINT((0.,0.));
#322=IFCDIRECTION((1.,0.));
#323=IFCAXIS2PLACEMENT2D(#321,#322);
#324=IFCISHAPEPROFILEDEF(.AREA.,'W8x48',#323,0.20999999999999999,0.20999999999999999,0.012,0.017999999999999999,0.01,$,$);
#325=IFCCARTESIANPOINT((0.,0.,0.));
#326=IFCDIRECTION((0.,0.,1.));
#327=IFCDIRECTION((1.,0.,0.));
#328=IFCAXIS2PLACEMENT3D(#325,#326,#327);
#329=IFCDIRECTION((0.,0.,1.));
#330=IFCEXTRUDEDAREASOLID(#324,#328,#329,4.75);
#331=IFCSHAPEREPRESENTATION(#16,'Body','SweptSolid',(#330));
#332=IFCPRODUCTDEFINITIONSHAPE($,$,(#331));
#333=IFCCARTESIANPOINT((15.1,8.8250000000000011,0.));
#334=IFCDIRECTION((0.,0.,1.));
#335=IFCDIRECTION((1.,0.,0.));
#336=IFCAXIS2PLACEMENT3D(#333,#334,#335);
#337=IFCLOCALPLACEMENT($,#336);
#338=IFCOWNERHISTORY(#3,#4,.READWRITE.,.ADDED.,1778383178,#3,#4,1778383178);
#339=IFCPROPERTYSET('0Gih9xNAL3yBAmGKWlbqhh',#338,'Pset_ColumnCommon',$,(#342,#343,#344,#345));
#340=IFCOWNERHISTORY(#3,#4,.READWRITE.,.ADDED.,1778383178,#3,#4,1778383178);
#341=IFCRELDEFINESBYPROPERTIES('0tgBniCpL6Y8az3lYmEGCp',#340,$,$,(#315),#339);
#342=IFCPROPERTYSINGLEVALUE('Reference',$,IFCIDENTIFIER('W8x48'),$);
#343=IFCPROPERTYSINGLEVALUE('LoadBearing',$,IFCBOOLEAN(.T.),$);
#344=IFCPROPERTYSINGLEVALUE('IsExternal',$,IFCBOOLEAN(.T.),$);
#345=IFCPROPERTYSINGLEVALUE('Slope',$,IFCPLANEANGLEMEASURE(0.),$);
#346=IFCOWNERHISTORY(#3,#4,.READWRITE.,.MODIFIED.,1778383178,#3,#4,1778383178);
#347=IFCCOLUMN('2D4lQ727PDjRjwPWq_1uUS',#346,'Steel Column S3',$,$,#369,#364,$,.COLUMN.);
#353=IFCCARTESIANPOINT((0.,0.));
#354=IFCDIRECTION((1.,0.));
#355=IFCAXIS2PLACEMENT2D(#353,#354);
#356=IFCISHAPEPROFILEDEF(.AREA.,'W8x48',#355,0.20999999999999999,0.20999999999999999,0.012,0.017999999999999999,0.01,$,$);
#357=IFCCARTESIANPOINT((0.,0.,0.));
#358=IFCDIRECTION((0.,0.,1.));
#359=IFCDIRECTION((1.,0.,0.));
#360=IFCAXIS2PLACEMENT3D(#357,#358,#359);
#361=IFCDIRECTION((0.,0.,1.));
#362=IFCEXTRUDEDAREASOLID(#356,#360,#361,4.75);
#363=IFCSHAPEREPRESENTATION(#16,'Body','SweptSolid',(#362));
#364=IFCPRODUCTDEFINITIONSHAPE($,$,(#363));
#365=IFCCARTESIANPOINT((15.1,-0.084999999999999992,0.));
#366=IFCDIRECTION((0.,0.,1.));
#367=IFCDIRECTION((1.,0.,0.));
#368=IFCAXIS2PLACEMENT3D(#365,#366,#367);
#369=IFCLOCALPLACEMENT($,#368);
#370=IFCOWNERHISTORY(#3,#4,.READWRITE.,.ADDED.,1778383178,#3,#4,1778383178);
#371=IFCPROPERTYSET('3vnxTbz757sxQyZv5kbc3q',#370,'Pset_ColumnCommon',$,(#374,#375,#376,#377));
#372=IFCOWNERHISTORY(#3,#4,.READWRITE.,.ADDED.,1778383178,#3,#4,1778383178);
#373=IFCRELDEFINESBYPROPERTIES('0nCo9VcW5AWflJMaL18Sku',#372,$,$,(#347),#371);
#374=IFCPROPERTYSINGLEVALUE('Reference',$,IFCIDENTIFIER('W8x48'),$);
#375=IFCPROPERTYSINGLEVALUE('LoadBearing',$,IFCBOOLEAN(.T.),$);
#376=IFCPROPERTYSINGLEVALUE('IsExternal',$,IFCBOOLEAN(.T.),$);
#377=IFCPROPERTYSINGLEVALUE('Slope',$,IFCPLANEANGLEMEASURE(0.),$);
#378=IFCOWNERHISTORY(#3,#4,.READWRITE.,.MODIFIED.,1778383178,#3,#4,1778383178);
#379=IFCCOLUMN('1nEeFWFXnFChWjTmoUc$1$',#378,'Steel Column N4',$,$,#401,#396,$,.COLUMN.);
#385=IFCCARTESIANPOINT((0.,0.));
#386=IFCDIRECTION((1.,0.));
#387=IFCAXIS2PLACEMENT2D(#385,#386);
#388=IFCISHAPEPROFILEDEF(.AREA.,'W8x48',#387,0.20999999999999999,0.20999999999999999,0.012,0.017999999999999999,0.01,$,$);
#389=IFCCARTESIANPOINT((0.,0.,0.));
#390=IFCDIRECTION((0.,0.,1.));
#391=IFCDIRECTION((1.,0.,0.));
#392=IFCAXIS2PLACEMENT3D(#389,#390,#391);
#393=IFCDIRECTION((0.,0.,1.));
#394=IFCEXTRUDEDAREASOLID(#388,#392,#393,4.75);
#395=IFCSHAPEREPRESENTATION(#16,'Body','SweptSolid',(#394));
#396=IFCPRODUCTDEFINITIONSHAPE($,$,(#395));
#397=IFCCARTESIANPOINT((21.809999999999999,8.8250000000000011,0.));
#398=IFCDIRECTION((0.,0.,1.));
#399=IFCDIRECTION((1.,0.,0.));
#400=IFCAXIS2PLACEMENT3D(#397,#398,#399);
#401=IFCLOCALPLACEMENT($,#400);
#402=IFCOWNERHISTORY(#3,#4,.READWRITE.,.ADDED.,1778383178,#3,#4,1778383178);
#403=IFCPROPERTYSET('3BZ_sSlcb8qO98w3arFHAL',#402,'Pset_ColumnCommon',$,(#406,#407,#408,#409));
#404=IFCOWNERHISTORY(#3,#4,.READWRITE.,.ADDED.,1778383178,#3,#4,1778383178);
#405=IFCRELDEFINESBYPROPERTIES('3hloLRP_zFEwZQxCpU9no6',#404,$,$,(#379),#403);
#406=IFCPROPERTYSINGLEVALUE('Reference',$,IFCIDENTIFIER('W8x48'),$);
#407=IFCPROPERTYSINGLEVALUE('LoadBearing',$,IFCBOOLEAN(.T.),$);
#408=IFCPROPERTYSINGLEVALUE('IsExternal',$,IFCBOOLEAN(.T.),$);
#409=IFCPROPERTYSINGLEVALUE('Slope',$,IFCPLANEANGLEMEASURE(0.),$);
#410=IFCOWNERHISTORY(#3,#4,.READWRITE.,.MODIFIED.,1778383178,#3,#4,1778383178);
#411=IFCCOLUMN('0NNJJ2BFz0G9bY1u2tG3Ht',#410,'Steel Column S4',$,$,#433,#428,$,.COLUMN.);
#417=IFCCARTESIANPOINT((0.,0.));
#418=IFCDIRECTION((1.,0.));
#419=IFCAXIS2PLACEMENT2D(#417,#418);
#420=IFCISHAPEPROFILEDEF(.AREA.,'W8x48',#419,0.20999999999999999,0.20999999999999999,0.012,0.017999999999999999,0.01,$,$);
#421=IFCCARTESIANPOINT((0.,0.,0.));
#422=IFCDIRECTION((0.,0.,1.));
#423=IFCDIRECTION((1.,0.,0.));
#424=IFCAXIS2PLACEMENT3D(#421,#422,#423);
#425=IFCDIRECTION((0.,0.,1.));
#426=IFCEXTRUDEDAREASOLID(#420,#424,#425,4.75);
#427=IFCSHAPEREPRESENTATION(#16,'Body','SweptSolid',(#426));
#428=IFCPRODUCTDEFINITIONSHAPE($,$,(#427));
#429=IFCCARTESIANPOINT((21.809999999999999,-0.084999999999999992,0.));
#430=IFCDIRECTION((0.,0.,1.));
#431=IFCDIRECTION((1.,0.,0.));
#432=IFCAXIS2PLACEMENT3D(#429,#430,#431);
#433=IFCLOCALPLACEMENT($,#432);
#434=IFCOWNERHISTORY(#3,#4,.READWRITE.,.ADDED.,1778383178,#3,#4,1778383178);
#435=IFCPROPERTYSET('2aWw_sE1nAUhlJIwxP$ylv',#434,'Pset_ColumnCommon',$,(#438,#439,#440,#441));
#436=IFCOWNERHISTORY(#3,#4,.READWRITE.,.ADDED.,1778383178,#3,#4,1778383178);
#437=IFCRELDEFINESBYPROPERTIES('2Z_hJawGn2AOztrSQrsAxa',#436,$,$,(#411),#435);
#438=IFCPROPERTYSINGLEVALUE('Reference',$,IFCIDENTIFIER('W8x48'),$);
#439=IFCPROPERTYSINGLEVALUE('LoadBearing',$,IFCBOOLEAN(.T.),$);
#440=IFCPROPERTYSINGLEVALUE('IsExternal',$,IFCBOOLEAN(.T.),$);
#441=IFCPROPERTYSINGLEVALUE('Slope',$,IFCPLANEANGLEMEASURE(0.),$);
#442=IFCOWNERHISTORY(#3,#4,.READWRITE.,.MODIFIED.,1778383178,#3,#4,1778383178);
#443=IFCWALL('2cHFFi48jDYwWHA3mGxUI0',#442,'Glass Wall \X2\2014\X0\ South',$,$,#465,#460,$,.SOLIDWALL.);
#449=IFCCARTESIANPOINT((0.,0.));
#450=IFCDIRECTION((1.,0.));
#451=IFCAXIS2PLACEMENT2D(#449,#450);
#452=IFCRECTANGLEPROFILEDEF(.AREA.,$,#451,19.919999999999998,0.025000000000000001);
#453=IFCCARTESIANPOINT((9.9599999999999991,0.012500000000000001,0.));
#454=IFCDIRECTION((0.,0.,1.));
#455=IFCDIRECTION((1.,0.,0.));
#456=IFCAXIS2PLACEMENT3D(#453,#454,#455);
#457=IFCDIRECTION((0.,0.,1.));
#458=IFCEXTRUDEDAREASOLID(#452,#456,#457,2.8999999999999999);
#459=IFCSHAPEREPRESENTATION(#16,'Body','SweptSolid',(#458));
#460=IFCPRODUCTDEFINITIONSHAPE($,$,(#459));
#461=IFCCARTESIANPOINT((1.7849999999999999,0.,1.6000000000000001));
#462=IFCDIRECTION((0.,0.,1.));
#463=IFCDIRECTION((1.,0.,0.));
#464=IFCAXIS2PLACEMENT3D(#461,#462,#463);
#465=IFCLOCALPLACEMENT($,#464);
#466=IFCOWNERHISTORY(#3,#4,.READWRITE.,.MODIFIED.,1778383178,#3,#4,1778383178);
#467=IFCRELASSOCIATESMATERIAL('1SUy6BcWj3cfafEoeGcuG$',#466,$,$,(#541,#477,#443,#509),#42);
#468=IFCOWNERHISTORY(#3,#4,.READWRITE.,.ADDED.,1778383178,#3,#4,1778383178);
#469=IFCPROPERTYSET('0ozl0uH0P6CvzIJe1Bc$W9',#468,'Pset_WallCommon',$,(#472,#473,#474,#475));
#470=IFCOWNERHISTORY(#3,#4,.READWRITE.,.ADDED.,1778383178,#3,#4,1778383178);
#471=IFCRELDEFINESBYPROPERTIES('0ifIAHnNr3$ucTX4vf754A',#470,$,$,(#443),#469);
#472=IFCPROPERTYSINGLEVALUE('IsExternal',$,IFCBOOLEAN(.T.),$);
#473=IFCPROPERTYSINGLEVALUE('LoadBearing',$,IFCBOOLEAN(.F.),$);
#474=IFCPROPERTYSINGLEVALUE('Reference',$,IFCIDENTIFIER('Single-pane plate glass curtain'),$);
#475=IFCPROPERTYSINGLEVALUE('ThermalTransmittance',$,IFCTHERMALTRANSMITTANCEMEASURE(5.7999999999999998),$);
#476=IFCOWNERHISTORY(#3,#4,.READWRITE.,.MODIFIED.,1778383178,#3,#4,1778383178);
#477=IFCWALL('0JwY4a$ID2F8Dnk20JmB0w',#476,'Glass Wall \X2\2014\X0\ North',$,$,#499,#494,$,.SOLIDWALL.);
#483=IFCCARTESIANPOINT((0.,0.));
#484=IFCDIRECTION((1.,0.));
#485=IFCAXIS2PLACEMENT2D(#483,#484);
#486=IFCRECTANGLEPROFILEDEF(.AREA.,$,#485,19.919999999999998,0.025000000000000001);
#487=IFCCARTESIANPOINT((9.9599999999999991,0.012500000000000001,0.));
#488=IFCDIRECTION((0.,0.,1.));
#489=IFCDIRECTION((1.,0.,0.));
#490=IFCAXIS2PLACEMENT3D(#487,#488,#489);
#491=IFCDIRECTION((0.,0.,1.));
#492=IFCEXTRUDEDAREASOLID(#486,#490,#491,2.8999999999999999);
#493=IFCSHAPEREPRESENTATION(#16,'Body','SweptSolid',(#492));
#494=IFCPRODUCTDEFINITIONSHAPE($,$,(#493));
#495=IFCCARTESIANPOINT((1.7849999999999999,8.7149999999999999,1.6000000000000001));
#496=IFCDIRECTION((0.,0.,1.));
#497=IFCDIRECTION((1.,0.,0.));
#498=IFCAXIS2PLACEMENT3D(#495,#496,#497);
#499=IFCLOCALPLACEMENT($,#498);
#500=IFCOWNERHISTORY(#3,#4,.READWRITE.,.ADDED.,1778383178,#3,#4,1778383178);
#501=IFCPROPERTYSET('1_$dE8u0P36R8nVGO1P0J1',#500,'Pset_WallCommon',$,(#504,#505,#506,#507));
#502=IFCOWNERHISTORY(#3,#4,.READWRITE.,.ADDED.,1778383178,#3,#4,1778383178);
#503=IFCRELDEFINESBYPROPERTIES('3K2oKtgr5878jDvWepzKEe',#502,$,$,(#477),#501);
#504=IFCPROPERTYSINGLEVALUE('IsExternal',$,IFCBOOLEAN(.T.),$);
#505=IFCPROPERTYSINGLEVALUE('LoadBearing',$,IFCBOOLEAN(.F.),$);
#506=IFCPROPERTYSINGLEVALUE('Reference',$,IFCIDENTIFIER('Single-pane plate glass curtain'),$);
#507=IFCPROPERTYSINGLEVALUE('ThermalTransmittance',$,IFCTHERMALTRANSMITTANCEMEASURE(5.7999999999999998),$);
#508=IFCOWNERHISTORY(#3,#4,.READWRITE.,.MODIFIED.,1778383178,#3,#4,1778383178);
#509=IFCWALL('1iDnXgXgv3NeKAcJ8Gk6NW',#508,'Glass Wall \X2\2014\X0\ West',$,$,#531,#526,$,.SOLIDWALL.);
#515=IFCCARTESIANPOINT((0.,0.));
#516=IFCDIRECTION((1.,0.));
#517=IFCAXIS2PLACEMENT2D(#515,#516);
#518=IFCRECTANGLEPROFILEDEF(.AREA.,$,#517,8.7400000000000002,0.025000000000000001);
#519=IFCCARTESIANPOINT((4.3700000000000001,0.012500000000000001,0.));
#520=IFCDIRECTION((0.,0.,1.));
#521=IFCDIRECTION((1.,0.,0.));
#522=IFCAXIS2PLACEMENT3D(#519,#520,#521);
#523=IFCDIRECTION((0.,0.,1.));
#524=IFCEXTRUDEDAREASOLID(#518,#522,#523,2.8999999999999999);
#525=IFCSHAPEREPRESENTATION(#16,'Body','SweptSolid',(#524));
#526=IFCPRODUCTDEFINITIONSHAPE($,$,(#525));
#527=IFCCARTESIANPOINT((1.7849999999999999,0.,1.6000000000000001));
#528=IFCDIRECTION((0.,0.,1.));
#529=IFCDIRECTION((6.123233995736766E-17,1.,0.));
#530=IFCAXIS2PLACEMENT3D(#527,#528,#529);
#531=IFCLOCALPLACEMENT($,#530);
#532=IFCOWNERHISTORY(#3,#4,.READWRITE.,.ADDED.,1778383178,#3,#4,1778383178);
#533=IFCPROPERTYSET('3QY_CVS09BqwMPDr2X8ATj',#532,'Pset_WallCommon',$,(#536,#537,#538,#539));
#534=IFCOWNERHISTORY(#3,#4,.READWRITE.,.ADDED.,1778383178,#3,#4,1778383178);
#535=IFCRELDEFINESBYPROPERTIES('2yghx52bD4N8UuvyCAU6S0',#534,$,$,(#509),#533);
#536=IFCPROPERTYSINGLEVALUE('IsExternal',$,IFCBOOLEAN(.T.),$);
#537=IFCPROPERTYSINGLEVALUE('LoadBearing',$,IFCBOOLEAN(.F.),$);
#538=IFCPROPERTYSINGLEVALUE('Reference',$,IFCIDENTIFIER('Single-pane plate glass curtain'),$);
#539=IFCPROPERTYSINGLEVALUE('ThermalTransmittance',$,IFCTHERMALTRANSMITTANCEMEASURE(5.7999999999999998),$);
#540=IFCOWNERHISTORY(#3,#4,.READWRITE.,.MODIFIED.,1778383178,#3,#4,1778383178);
#541=IFCWALL('0fntKDdvT6qP23AZagB1gU',#540,'Glass Wall \X2\2014\X0\ East',$,$,#563,#558,$,.SOLIDWALL.);
#547=IFCCARTESIANPOINT((0.,0.));
#548=IFCDIRECTION((1.,0.));
#549=IFCAXIS2PLACEMENT2D(#547,#548);
#550=IFCRECTANGLEPROFILEDEF(.AREA.,$,#549,8.7400000000000002,0.025000000000000001);
#551=IFCCARTESIANPOINT((4.3700000000000001,0.012500000000000001,0.));
#552=IFCDIRECTION((0.,0.,1.));
#553=IFCDIRECTION((1.,0.,0.));
#554=IFCAXIS2PLACEMENT3D(#551,#552,#553);
#555=IFCDIRECTION((0.,0.,1.));
#556=IFCEXTRUDEDAREASOLID(#550,#554,#555,2.8999999999999999);
#557=IFCSHAPEREPRESENTATION(#16,'Body','SweptSolid',(#556));
#558=IFCPRODUCTDEFINITIONSHAPE($,$,(#557));
#559=IFCCARTESIANPOINT((21.704999999999998,0.,1.6000000000000001));
#560=IFCDIRECTION((0.,0.,1.));
#561=IFCDIRECTION((6.123233995736766E-17,1.,0.));
#562=IFCAXIS2PLACEMENT3D(#559,#560,#561);
#563=IFCLOCALPLACEMENT($,#562);
#564=IFCOWNERHISTORY(#3,#4,.READWRITE.,.ADDED.,1778383178,#3,#4,1778383178);
#565=IFCPROPERTYSET('2E$lZ5kmL0cB0E8JWcTI8C',#564,'Pset_WallCommon',$,(#568,#569,#570,#571));
#566=IFCOWNERHISTORY(#3,#4,.READWRITE.,.ADDED.,1778383178,#3,#4,1778383178);
#567=IFCRELDEFINESBYPROPERTIES('3M0Vy76LX2pAePOX2Uoo4Q',#566,$,$,(#541),#565);
#568=IFCPROPERTYSINGLEVALUE('IsExternal',$,IFCBOOLEAN(.T.),$);
#569=IFCPROPERTYSINGLEVALUE('LoadBearing',$,IFCBOOLEAN(.F.),$);
#570=IFCPROPERTYSINGLEVALUE('Reference',$,IFCIDENTIFIER('Single-pane plate glass curtain'),$);
#571=IFCPROPERTYSINGLEVALUE('ThermalTransmittance',$,IFCTHERMALTRANSMITTANCEMEASURE(5.7999999999999998),$);
#572=IFCOWNERHISTORY(#3,#4,.READWRITE.,.MODIFIED.,1778383178,#3,#4,1778383178);
#573=IFCSTAIR('0SNoQ3tXj2A8E3yalM8YWw',#572,'Stair \X2\2014\X0\ Grade to Terrace',$,$,#597,#590,$,.STRAIGHT_RUN_STAIR.);
#579=IFCCARTESIANPOINT((0.,0.));
#580=IFCDIRECTION((1.,0.));
#581=IFCAXIS2PLACEMENT2D(#579,#580);
#582=IFCRECTANGLEPROFILEDEF(.AREA.,$,#581,1.8,1.5);
#583=IFCCARTESIANPOINT((0.90000000000000002,0.75,0.40000000000000002));
#584=IFCDIRECTION((0.,0.,1.));
#585=IFCDIRECTION((1.,0.,0.));
#586=IFCAXIS2PLACEMENT3D(#583,#584,#585);
#587=IFCDIRECTION((0.,0.,1.));
#588=IFCEXTRUDEDAREASOLID(#582,#586,#587,0.80000000000000004);
#589=IFCSHAPEREPRESENTATION(#16,'Body','SweptSolid',(#588));
#590=IFCPRODUCTDEFINITIONSHAPE($,$,(#589));
#591=IFCOWNERHISTORY(#3,#4,.READWRITE.,.MODIFIED.,1778383178,#3,#4,1778383178);
#592=IFCRELCONTAINEDINSPATIALSTRUCTURE('3_$$YzeR1FgeIfkrQZ7NwN',#591,$,$,(#573,#643),#27);
#593=IFCCARTESIANPOINT((-18.860000000000003,3.6200000000000001,0.));
#594=IFCDIRECTION((0.,0.,1.));
#595=IFCDIRECTION((1.,0.,0.));
#596=IFCAXIS2PLACEMENT3D(#593,#594,#595);
#597=IFCLOCALPLACEMENT($,#596);
#598=IFCOWNERHISTORY(#3,#4,.READWRITE.,.ADDED.,1778383178,#3,#4,1778383178);
#599=IFCPROPERTYSET('1q6Vj8izn0Reel11dOGN1f',#598,'Pset_StairCommon',$,(#602,#603,#604,#605,#606,#607));
#600=IFCOWNERHISTORY(#3,#4,.READWRITE.,.ADDED.,1778383178,#3,#4,1778383178);
#601=IFCRELDEFINESBYPROPERTIES('0HTX_pqvjFvADDxzeKhwbo',#600,$,$,(#573),#599);
#602=IFCPROPERTYSINGLEVALUE('Reference',$,IFCIDENTIFIER('Stair \X2\2014\X0\ Grade to Terrace'),$);
#603=IFCPROPERTYSINGLEVALUE('IsExternal',$,IFCBOOLEAN(.T.),$);
#604=IFCPROPERTYSINGLEVALUE('NumberOfRiser',$,IFCCOUNTMEASURE(5.),$);
#605=IFCPROPERTYSINGLEVALUE('NumberOfTreads',$,IFCCOUNTMEASURE(4.),$);
#606=IFCPROPERTYSINGLEVALUE('RiserHeight',$,IFCPOSITIVELENGTHMEASURE(0.16),$);
#607=IFCPROPERTYSINGLEVALUE('TreadLength',$,IFCPOSITIVELENGTHMEASURE(0.45000000000000001),$);
#608=IFCOWNERHISTORY(#3,#4,.READWRITE.,.MODIFIED.,1778383178,#3,#4,1778383178);
#609=IFCSTAIR('1FfZsUnQDBeQrik1Rg6dDL',#608,'Stair \X2\2014\X0\ Terrace to Main',$,$,#631,#626,$,.STRAIGHT_RUN_STAIR.);
#615=IFCCARTESIANPOINT((0.,0.));
#616=IFCDIRECTION((1.,0.));
#617=IFCAXIS2PLACEMENT2D(#615,#616);
#618=IFCRECTANGLEPROFILEDEF(.AREA.,$,#617,1.8,1.5);
#619=IFCCARTESIANPOINT((0.90000000000000002,0.75,0.40000000000000002));
#620=IFCDIRECTION((0.,0.,1.));
#621=IFCDIRECTION((1.,0.,0.));
#622=IFCAXIS2PLACEMENT3D(#619,#620,#621);
#623=IFCDIRECTION((0.,0.,1.));
#624=IFCEXTRUDEDAREASOLID(#618,#622,#623,0.80000000000000004);
#625=IFCSHAPEREPRESENTATION(#16,'Body','SweptSolid',(#624));
#626=IFCPRODUCTDEFINITIONSHAPE($,$,(#625));
#627=IFCCARTESIANPOINT((-1.8,3.6200000000000001,0.80000000000000004));
#628=IFCDIRECTION((0.,0.,1.));
#629=IFCDIRECTION((1.,0.,0.));
#630=IFCAXIS2PLACEMENT3D(#627,#628,#629);
#631=IFCLOCALPLACEMENT($,#630);
#632=IFCOWNERHISTORY(#3,#4,.READWRITE.,.ADDED.,1778383178,#3,#4,1778383178);
#633=IFCPROPERTYSET('2b$ABkpbHAofgqabJPYmN9',#632,'Pset_StairCommon',$,(#636,#637,#638,#639,#640,#641));
#634=IFCOWNERHISTORY(#3,#4,.READWRITE.,.ADDED.,1778383178,#3,#4,1778383178);
#635=IFCRELDEFINESBYPROPERTIES('06YIEjlh9DAOsWPxfrCwX_',#634,$,$,(#609),#633);
#636=IFCPROPERTYSINGLEVALUE('Reference',$,IFCIDENTIFIER('Stair \X2\2014\X0\ Terrace to Main'),$);
#637=IFCPROPERTYSINGLEVALUE('IsExternal',$,IFCBOOLEAN(.T.),$);
#638=IFCPROPERTYSINGLEVALUE('NumberOfRiser',$,IFCCOUNTMEASURE(5.),$);
#639=IFCPROPERTYSINGLEVALUE('NumberOfTreads',$,IFCCOUNTMEASURE(4.),$);
#640=IFCPROPERTYSINGLEVALUE('RiserHeight',$,IFCPOSITIVELENGTHMEASURE(0.16),$);
#641=IFCPROPERTYSINGLEVALUE('TreadLength',$,IFCPOSITIVELENGTHMEASURE(0.45000000000000001),$);
#642=IFCOWNERHISTORY(#3,#4,.READWRITE.,.MODIFIED.,1778383178,#3,#4,1778383178);
#643=IFCGEOGRAPHICELEMENT('3vYwq8Gxf6JfsLIfH$8YsB',#642,'Ground (Fox River meadow)',$,$,#665,#660,$,$);
#649=IFCCARTESIANPOINT((0.,0.));
#650=IFCDIRECTION((1.,0.));
#651=IFCAXIS2PLACEMENT2D(#649,#650);
#652=IFCRECTANGLEPROFILEDEF(.AREA.,$,#651,60.,30.);
#653=IFCCARTESIANPOINT((0.,0.,0.));
#654=IFCDIRECTION((0.,0.,1.));
#655=IFCDIRECTION((1.,0.,0.));
#656=IFCAXIS2PLACEMENT3D(#653,#654,#655);
#657=IFCDIRECTION((0.,0.,1.));
#658=IFCEXTRUDEDAREASOLID(#652,#656,#657,0.20000000000000001);
#659=IFCSHAPEREPRESENTATION(#16,'Body','SweptSolid',(#658));
#660=IFCPRODUCTDEFINITIONSHAPE($,$,(#659));
#661=IFCCARTESIANPOINT((-35.,-10.629999999999999,-0.20000000000000001));
#662=IFCDIRECTION((0.,0.,1.));
#663=IFCDIRECTION((1.,0.,0.));
#664=IFCAXIS2PLACEMENT3D(#661,#662,#663);
#665=IFCLOCALPLACEMENT($,#664);
#666=IFCOWNERHISTORY(#3,#4,.READWRITE.,.ADDED.,1778383178,#3,#4,1778383178);
#667=IFCRELASSOCIATESMATERIAL('1xBMXr359DPOU95XKDQJCW',#666,$,$,(#643),#44);
#668=IFCOWNERHISTORY(#3,#4,.READWRITE.,.ADDED.,1778383178,#3,#4,1778383178);
#669=IFCPROPERTYSET('3k50yzACPDMgC8DI_fCINC',#668,'Pset_SiteCommon',$,(#672));
#670=IFCOWNERHISTORY(#3,#4,.READWRITE.,.ADDED.,1778383178,#3,#4,1778383178);
#671=IFCRELDEFINESBYPROPERTIES('28GT_Bcbj6GugTlEbPBNz5',#670,$,$,(#643),#669);
#672=IFCPROPERTYSINGLEVALUE('Reference',$,IFCIDENTIFIER('Fox River floodplain meadow'),$);
#673=IFCOWNERHISTORY(#3,#4,.READWRITE.,.ADDED.,1778383178,#3,#4,1778383178);
#674=IFCPROPERTYSET('124nZ5s0r1Be8hfGlHnaJ4',#673,'Pset_ProjectCommon',$,(#677,#678));
#675=IFCOWNERHISTORY(#3,#4,.READWRITE.,.ADDED.,1778383178,#3,#4,1778383178);
#676=IFCRELDEFINESBYPROPERTIES('32KfOETEH3fPWgT9yWqUve',#675,$,$,(#6),#674);
#677=IFCPROPERTYSINGLEVALUE('Phase',$,IFCLABEL('As-built reference model'),$);
#678=IFCPROPERTYSINGLEVALUE('Reference',$,IFCLABEL('IFC4 LOD 300'),$);
#679=IFCOWNERHISTORY(#3,#4,.READWRITE.,.ADDED.,1778383178,#3,#4,1778383178);
#680=IFCPROPERTYSET('3rOjFCTYf00OD0IVfhRcGo',#679,'Pset_BuildingCommon',$,(#683,#684,#685,#686,#687));
#681=IFCOWNERHISTORY(#3,#4,.READWRITE.,.ADDED.,1778383178,#3,#4,1778383178);
#682=IFCRELDEFINESBYPROPERTIES('0XVBxewdHBt8tMPStaxM7I',#681,$,$,(#25),#680);
#683=IFCPROPERTYSINGLEVALUE('BuildingID',$,IFCIDENTIFIER('FARNSWORTH-1951'),$);
#684=IFCPROPERTYSINGLEVALUE('IsLandmarked',$,IFCLOGICAL(.U.),$);
#685=IFCPROPERTYSINGLEVALUE('NumberOfStoreys',$,IFCINTEGER(1),$);
#686=IFCPROPERTYSINGLEVALUE('GrossPlannedArea',$,IFCAREAMEASURE(205.12780000000001),$);
#687=IFCPROPERTYSINGLEVALUE('OccupancyType',$,IFCLABEL('Single family residence'),$);
ENDSEC;
END-ISO-10303-21;
